<svg width="12" height="12" viewBox="0 0 12 12" fill="none" xmlns="http://www.w3.org/2000/svg">
<path d="M0.986894 11.8427C0.715498 11.8427 0.483167 11.7461 0.2899 11.5528C0.0966334 11.3596 0 11.1272 0 10.8558V0.986894C0 0.715498 0.0966334 0.483167 0.2899 0.2899C0.483167 0.0966332 0.715498 0 0.986894 0H10.8558C11.1272 0 11.3596 0.0966332 11.5528 0.2899C11.7461 0.483167 11.8427 0.715498 11.8427 0.986894V10.8558C11.8427 11.1272 11.7461 11.3596 11.5528 11.5528C11.3596 11.7461 11.1272 11.8427 10.8558 11.8427H5.92136H0.986894ZM4.44102 6.41481C4.85223 6.41481 5.20175 6.27089 5.4896 5.98304C5.77744 5.6952 5.92136 5.34567 5.92136 4.93447C5.92136 4.52326 5.77744 4.17374 5.4896 3.88589C5.20175 3.59805 4.85223 3.45413 4.44102 3.45413C4.02982 3.45413 3.68029 3.59805 3.39245 3.88589C3.1046 4.17374 2.96068 4.52326 2.96068 4.93447C2.96068 5.34567 3.1046 5.6952 3.39245 5.98304C3.68029 6.27089 4.02982 6.41481 4.44102 6.41481ZM9.37549 8.3886L10.3624 7.4017L9.62222 6.41481H8.80803C8.75868 6.26678 8.71756 6.10846 8.68467 5.93987C8.65177 5.77127 8.63532 5.60062 8.63532 5.42792C8.63532 5.25521 8.65177 5.08867 8.68467 4.9283C8.71756 4.76793 8.75868 4.6055 8.80803 4.44102H9.62222L10.3624 3.45413L9.37549 2.46723C8.93139 2.81265 8.57364 3.25058 8.30225 3.78104C8.03085 4.31149 7.89515 4.86045 7.89515 5.42792C7.89515 5.99538 8.03085 6.54434 8.30225 7.0748C8.57364 7.60525 8.93139 8.04318 9.37549 8.3886ZM1.03624 8.88204H7.84581C7.50039 8.26524 7.02339 7.78207 6.41481 7.43254C5.80623 7.08302 5.1483 6.90826 4.44102 6.90826C3.73375 6.90826 3.07582 7.08302 2.46723 7.43254C1.85865 7.78207 1.38165 8.26524 1.03624 8.88204Z" fill="white"/>
</svg>
