<svg width="100" height="100" viewBox="0 0 100 100" fill="none" xmlns="http://www.w3.org/2000/svg">
<g id="Group 33614">
<path id="Vector" fill-rule="evenodd" clip-rule="evenodd" d="M50.0002 22.4947C43.8172 16.3132 43.8172 6.20391 50.0002 0C56.1832 6.18159 56.1832 16.3132 50.0002 22.4947Z" fill="#DA504A" fill-opacity="0.4"/>
<path id="Vector_2" fill-rule="evenodd" clip-rule="evenodd" d="M77.5 49.9878C83.683 43.8062 93.817 43.8062 100 49.9878C93.7947 56.1917 83.683 56.1917 77.5 49.9878Z" fill="#DA504A" fill-opacity="0.4"/>
<path id="Vector_3" fill-rule="evenodd" clip-rule="evenodd" d="M50.0002 77.5039C56.1832 83.6855 56.1832 93.7947 50.0002 99.9986C43.8172 93.8171 43.8172 83.7078 50.0002 77.5039Z" fill="#DA504A" fill-opacity="0.4"/>
<path id="Vector_4" fill-rule="evenodd" clip-rule="evenodd" d="M22.5 49.9878C16.2947 56.1917 6.18303 56.1917 0 49.9878C6.18303 43.8062 16.2947 43.8062 22.5 49.9878Z" fill="#DA504A" fill-opacity="0.4"/>
<path id="Vector_5" fill-rule="evenodd" clip-rule="evenodd" d="M66.2503 28.6526L60.603 34.2986C59.8887 35.035 59.4869 35.9946 59.4869 37.0212C59.4869 38.0477 59.8887 39.0073 60.603 39.7437C61.3396 40.4802 62.2994 40.8595 63.3262 40.8595C64.353 40.8595 65.3128 40.4579 66.0494 39.7437L71.6967 34.0977C73.9735 31.8215 77.0538 30.5494 80.2904 30.5494C83.527 30.5494 86.585 31.8215 88.8618 34.0977L89.8887 35.1466L83.2145 41.8415C79.9333 45.0996 75.5136 46.9296 70.8708 46.9296C66.2279 46.9296 61.8752 45.1443 58.594 41.8861L58.527 41.8191L58.4824 41.7745C55.2458 38.494 53.4377 34.0977 53.4377 29.5006C53.4377 24.9034 55.2458 20.4402 58.527 17.1597L65.2012 10.4648L66.2503 11.5137C68.5271 13.79 69.7994 16.8696 69.7994 20.0831C69.7994 23.2967 68.5271 26.3763 66.2503 28.6526Z" fill="#DA504A" fill-opacity="0.4"/>
<path id="Vector_6" fill-rule="evenodd" clip-rule="evenodd" d="M33.75 28.7218C31.4732 26.4455 30.2008 23.3659 30.2008 20.1523C30.2008 16.9388 31.4732 13.8592 33.75 11.5606L34.7991 10.5117L41.4732 17.2066C44.7545 20.4871 46.5848 24.9057 46.5848 29.5475C46.5848 34.1892 44.7768 38.5409 41.5402 41.8214L41.4955 41.866L41.4285 41.933C38.1473 45.1688 33.7499 46.9764 29.1517 46.9764C24.5535 46.9764 20.0892 45.1688 16.808 41.8883L10.1339 35.1935L11.1607 34.1446C13.4375 31.8683 16.5179 30.5963 19.7322 30.5963C22.9464 30.5963 26.0267 31.8683 28.3259 34.1446L33.9732 39.7906C34.7098 40.527 35.6696 40.9064 36.6964 40.9064C37.7232 40.9064 38.683 40.5047 39.4196 39.7906C40.1562 39.0542 40.5357 38.0946 40.5357 37.068C40.5357 36.0415 40.1339 35.0819 39.4196 34.3454" fill="#DA504A" fill-opacity="0.4"/>
<path id="Vector_7" fill-rule="evenodd" clip-rule="evenodd" d="M66.2503 71.3886C68.5271 73.6649 69.7994 76.7445 69.7994 79.958C69.7994 83.1716 68.5271 86.2512 66.2503 88.5498L65.2012 89.5986L58.527 82.9038C55.2458 79.6233 53.4377 75.2047 53.4377 70.5629C53.4377 65.9211 55.2458 61.5695 58.4824 58.289L58.527 58.2443L58.594 58.1774C61.8752 54.9415 66.2726 53.1562 70.8708 53.1562C75.469 53.1562 79.9333 54.9639 83.2145 58.2443L89.8887 64.9392L88.8618 65.9881C86.585 68.2643 83.5047 69.5363 80.2904 69.5363C77.0761 69.5363 73.9735 68.2643 71.6967 65.9881L66.0494 60.3421C65.3128 59.6056 64.353 59.2263 63.3262 59.2263C62.2994 59.2263 61.3396 59.628 60.603 60.3421C59.8887 61.0562 59.4869 62.0381 59.4869 63.0647C59.4869 64.0912 59.8887 65.0731 60.603 65.7872" fill="#DA504A" fill-opacity="0.4"/>
<path id="Vector_8" fill-rule="evenodd" clip-rule="evenodd" d="M33.7499 71.3239L39.3972 65.6779C40.1338 64.9414 40.5133 63.9818 40.5133 62.9553C40.5133 61.9287 40.1115 60.9691 39.3972 60.2327C38.6829 59.4963 37.7008 59.1169 36.674 59.1169C35.6472 59.1169 34.6651 59.5186 33.9508 60.2327L28.3035 65.8787C26.0267 68.155 22.9463 69.427 19.7097 69.427C16.4731 69.427 13.4151 68.155 11.1383 65.8787L10.1115 64.8299L16.7856 58.135C20.0668 54.8768 24.4865 53.0469 29.1293 53.0469C33.7722 53.0469 38.1249 54.8322 41.4061 58.0903L41.4731 58.1573L41.5177 58.2019C44.7543 61.4824 46.5624 65.8787 46.5624 70.4759C46.5624 75.073 44.7543 79.5362 41.4507 82.8167L34.7767 89.4893L33.7276 88.4404C31.4508 86.1641 30.1785 83.0845 30.1785 79.8487C30.1785 76.6128 31.4508 73.5555 33.7276 71.2792" fill="#DA504A" fill-opacity="0.4"/>
</g>
</svg>
