<svg width="470" height="470" viewBox="0 0 470 470" fill="none" xmlns="http://www.w3.org/2000/svg">
<path fill-rule="evenodd" clip-rule="evenodd" d="M235.005 364.111C264.031 393.142 264.031 440.635 235.005 469.667C205.986 440.635 205.986 393.134 235.005 364.111Z" fill="#DC3941"/>
<path fill-rule="evenodd" clip-rule="evenodd" d="M105.941 235.001C76.9146 264.032 29.429 264.032 0.332026 235.001C29.429 205.891 76.9146 205.891 105.941 235.001Z" fill="#DC3941"/>
<path fill-rule="evenodd" clip-rule="evenodd" d="M235.001 105.89C205.974 76.8588 205.974 29.3575 235.001 0.334135C264.036 29.3575 264.036 76.8588 235.001 105.89Z" fill="#DC3941"/>
<path fill-rule="evenodd" clip-rule="evenodd" d="M364.056 235.001C393.154 205.891 440.64 205.891 469.667 235.001C440.64 264.032 393.154 264.032 364.056 235.001Z" fill="#DC3941"/>
<path fill-rule="evenodd" clip-rule="evenodd" d="M158.744 335.23L185.237 308.741C188.641 305.336 190.501 300.77 190.501 295.96C190.501 291.158 188.641 286.591 185.237 283.178C181.832 279.765 177.258 277.906 172.457 277.906C167.656 277.906 163.09 279.765 159.677 283.178L133.193 309.667C122.508 320.354 108.096 326.317 92.916 326.317C77.8143 326.317 63.4108 320.354 52.718 309.667L47.8383 304.787L79.2029 273.339C94.6184 258 115.376 249.479 137.139 249.479C158.744 249.479 179.345 257.913 194.761 273.104L195.067 273.41L195.302 273.645C210.482 289.063 218.923 309.667 218.923 331.276C218.923 353.041 210.404 373.803 194.988 389.213L163.616 420.59L158.736 415.71C148.051 405.023 142.089 390.531 142.089 375.427C142.089 360.331 148.059 345.925 158.744 335.23Z" fill="#DC3941"/>
<path fill-rule="evenodd" clip-rule="evenodd" d="M311.195 334.869C321.88 345.564 327.85 359.969 327.842 375.073C327.842 390.178 321.88 404.662 311.195 415.356L306.315 420.237L274.943 388.859C259.535 373.441 251.008 352.688 251.008 330.922C251.008 309.314 259.449 288.709 274.629 273.291L274.864 273.056L275.17 272.75C290.586 257.56 311.187 249.125 332.792 249.125C354.554 249.125 375.312 257.646 390.728 272.985L422.092 304.433L417.213 309.314C406.528 320 392.116 325.964 377.015 325.964C361.835 325.964 347.431 320 336.738 309.314L310.253 282.825C306.849 279.412 302.275 277.552 297.474 277.552C292.673 277.552 288.099 279.412 284.694 282.825C281.289 286.23 279.43 290.804 279.43 295.606C279.43 300.416 281.289 304.975 284.694 308.388L311.195 334.869Z" fill="#DC3941"/>
<path fill-rule="evenodd" clip-rule="evenodd" d="M158.736 134.577C148.051 123.882 142.081 109.476 142.089 94.3724C142.089 79.2684 148.051 64.7842 158.736 54.0898L163.616 49.2094L194.988 80.5866C210.396 96.0045 218.923 116.758 218.923 138.523C218.923 160.132 210.482 180.736 195.302 196.154L195.067 196.389L194.761 196.695C179.345 211.886 158.744 220.321 137.139 220.321C115.376 220.321 94.6184 211.8 79.2029 196.46L47.8384 165.012L52.7181 160.132C63.403 149.445 77.8144 143.482 92.9161 143.482C108.096 143.482 122.5 149.445 133.193 160.132L159.677 186.621C163.082 190.034 167.656 191.894 172.457 191.894C177.258 191.894 181.832 190.034 185.237 186.621C188.641 183.216 190.501 178.641 190.501 173.839C190.501 169.03 188.641 164.471 185.237 161.058L158.736 134.577Z" fill="#DC3941"/>
<path fill-rule="evenodd" clip-rule="evenodd" d="M311.19 134.976L284.697 161.465C281.292 164.87 279.433 169.437 279.433 174.247C279.433 179.049 281.292 183.615 284.697 187.028C288.101 190.441 292.675 192.301 297.476 192.301C302.278 192.301 306.843 190.441 310.256 187.028L336.741 160.539C347.426 149.853 361.837 143.889 377.018 143.889C392.119 143.889 406.523 149.853 417.216 160.539L422.095 165.42L390.731 196.867C375.315 212.207 354.557 220.728 332.795 220.728C311.19 220.728 290.588 212.293 275.173 197.103L274.867 196.797L274.632 196.561C259.451 181.143 251.01 160.539 251.01 138.93C251.01 117.165 259.53 96.4037 274.945 80.9936L306.318 49.6164L311.197 54.4967C321.882 65.1834 327.845 79.6755 327.845 94.7795C327.845 109.868 321.882 124.282 311.19 134.976Z" fill="#DC3941"/>
</svg>
